<?xml version="1.0" encoding="UTF-8"?>
<svg width="26px" height="28px" viewBox="0 0 26 28" version="1.1" xmlns="http://www.w3.org/2000/svg" xmlns:xlink="http://www.w3.org/1999/xlink">
    <title>Group 7</title>
    <g id="Navigation-4.0" stroke="none" stroke-width="1" fill="none" fill-rule="evenodd">
        <g id="Filter-Navigation-Copy" transform="translate(-1613.000000, -1435.000000)" fill="#FFFFFF" fill-rule="nonzero">
            <g id="Group-2-Copy-6" transform="translate(1563.000000, 1429.000000)">
                <g id="Group-5" transform="translate(50.000000, 6.000000)">
                    <path d="M6.4066092,21.3139779 L6.4066092,12.5247087 C6.4066092,12.4305379 6.4066092,2.63678077 6.4066092,2.63678077 C6.4066092,1.47534162 6.58965517,1.31839039 9.09128352,1.31839039 C13.57591,1.31839039 15.5284004,4.42602487 15.5284004,7.69061059 C15.5284004,10.5157329 14.6131705,11.9596842 13.5148946,12.8386112 C12.3556034,13.7489283 10.7081897,14.0000503 9.24382184,14.0000503 C8.29808429,14.0000503 7.90148467,14.0000503 7.47437739,14.0000503 L7.47437739,15.0673187 L9.24382184,15.0673187 C9.24382184,15.0673187 10.7081897,15.0673187 12.0810345,14.7534162 C15.7724617,13.9372698 19.1893199,10.9865866 19.1893199,7.0314154 C19.1893199,4.14351265 17.7859674,2.26009781 15.833477,1.22421965 C13.9725096,0.188341484 11.5929119,-1.68603361e-15 9.12179119,-1.68603361e-15 C5.18630268,-1.68603361e-15 -1.32295425e-14,-1.68603361e-15 -1.32295425e-14,-1.68603361e-15 L-1.32295425e-14,0.721975688 L0.701676245,0.721975688 C3.2033046,0.721975688 3.2033046,2.29148805 3.2033046,6.21526897 L3.2033046,21.2511974 C3.2033046,25.6144418 3.05076628,26.399198 0.701676245,26.399198 L-1.32295425e-14,26.399198 L-1.32295425e-14,27.6234176 L9.67092912,27.6234176 L9.60991379,26.4305882 L8.90823755,26.4305882 C6.58965517,26.4305882 6.4066092,25.6458321 6.4066092,21.3139779 Z" id="Shape"></path>
                    <path d="M25.2908525,27.1839542 C24.1925766,27.0897834 23.1553161,26.6189297 22.4536398,25.9911248 C19.7384579,23.6368562 17.7859674,20.3408803 14.5826628,15.0673187 C14.2775862,15.2870504 13.6064176,15.5381724 12.9657567,15.7892944 C12.3250958,16.0090261 11.4708812,16.1345871 11.0437739,16.1973676 C11.1047893,16.2601481 11.1658046,16.3857091 11.2268199,16.4798798 C12.4776341,18.3319044 14.1250479,21.1884169 15.1623084,22.7265391 C18.0300287,26.901442 20.0740421,27.9059299 23.4909004,27.9059299 C24.253592,27.9059299 24.8942529,27.8431494 25.2603448,27.7175884 L25.2908525,27.1839542 Z" id="Shape"></path>
                </g>
            </g>
        </g>
    </g>
</svg>