<svg width="46" height="45" viewBox="0 0 46 45" fill="none" xmlns="http://www.w3.org/2000/svg">
<path d="M42.5 4.9887H29.56C29.043 3.52952 28.0866 2.26638 26.8223 1.37302C25.5581 0.479669 24.0481 0 22.5 0C20.9519 0 19.4419 0.479669 18.1777 1.37302C16.9134 2.26638 15.957 3.52952 15.44 4.9887H2.5C1.83696 4.9887 1.20107 5.25209 0.732233 5.72093C0.263392 6.18977 0 6.82566 0 7.4887C0 8.15174 0.263392 8.78763 0.732233 9.25647C1.20107 9.72531 1.83696 9.9887 2.5 9.9887H15.44C15.957 11.4479 16.9134 12.711 18.1777 13.6044C19.4419 14.4977 20.9519 14.9774 22.5 14.9774C24.0481 14.9774 25.5581 14.4977 26.8223 13.6044C28.0866 12.711 29.043 11.4479 29.56 9.9887H42.5C43.163 9.9887 43.7989 9.72531 44.2678 9.25647C44.7366 8.78763 45 8.15174 45 7.4887C45 6.82566 44.7366 6.18977 44.2678 5.72093C43.7989 5.25209 43.163 4.9887 42.5 4.9887ZM22.5 9.9887C22.0055 9.9887 21.5222 9.84208 21.1111 9.56738C20.6999 9.29267 20.3795 8.90222 20.1903 8.44541C20.0011 7.98859 19.9516 7.48593 20.048 7.00098C20.1445 6.51602 20.3826 6.07056 20.7322 5.72093C21.0819 5.3713 21.5273 5.1332 22.0123 5.03674C22.4972 4.94028 22.9999 4.98978 23.4567 5.179C23.9135 5.36822 24.304 5.68865 24.5787 6.09977C24.8534 6.5109 25 6.99425 25 7.4887C25 8.15174 24.7366 8.78763 24.2678 9.25647C23.7989 9.72531 23.163 9.9887 22.5 9.9887Z" fill="white"/>
<path d="M42.5 34.9887H29.56C29.043 33.5295 28.0866 32.2664 26.8223 31.373C25.5581 30.4797 24.0481 30 22.5 30C20.9519 30 19.4419 30.4797 18.1777 31.373C16.9134 32.2664 15.957 33.5295 15.44 34.9887H2.5C1.83696 34.9887 1.20107 35.2521 0.732233 35.7209C0.263392 36.1898 0 36.8257 0 37.4887C0 38.1517 0.263392 38.7876 0.732233 39.2565C1.20107 39.7253 1.83696 39.9887 2.5 39.9887H15.44C15.957 41.4479 16.9134 42.711 18.1777 43.6044C19.4419 44.4977 20.9519 44.9774 22.5 44.9774C24.0481 44.9774 25.5581 44.4977 26.8223 43.6044C28.0866 42.711 29.043 41.4479 29.56 39.9887H42.5C43.163 39.9887 43.7989 39.7253 44.2678 39.2565C44.7366 38.7876 45 38.1517 45 37.4887C45 36.8257 44.7366 36.1898 44.2678 35.7209C43.7989 35.2521 43.163 34.9887 42.5 34.9887ZM22.5 39.9887C22.0055 39.9887 21.5222 39.8421 21.1111 39.5674C20.6999 39.2927 20.3795 38.9022 20.1903 38.4454C20.0011 37.9886 19.9516 37.4859 20.048 37.001C20.1445 36.516 20.3826 36.0706 20.7322 35.7209C21.0819 35.3713 21.5273 35.1332 22.0123 35.0367C22.4972 34.9403 22.9999 34.9898 23.4567 35.179C23.9135 35.3682 24.304 35.6887 24.5787 36.0998C24.8534 36.5109 25 36.9942 25 37.4887C25 38.1517 24.7366 38.7876 24.2678 39.2565C23.7989 39.7253 23.163 39.9887 22.5 39.9887V39.9887Z" fill="white"/>
<path d="M37.5 14.9888C35.9513 14.9925 34.4416 15.475 33.1777 16.3701C31.9138 17.2652 30.9576 18.5291 30.44 19.9888H2.5C1.83696 19.9888 1.20107 20.2522 0.732233 20.721C0.263392 21.1898 0 21.8257 0 22.4888C0 23.1518 0.263392 23.7877 0.732233 24.2565C1.20107 24.7254 1.83696 24.9888 2.5 24.9888H30.44C30.8985 26.2856 31.7048 27.4313 32.7706 28.3007C33.8365 29.1701 35.1209 29.7296 36.4834 29.918C37.8459 30.1065 39.234 29.9167 40.4958 29.3693C41.7577 28.8219 42.8447 27.938 43.638 26.8144C44.4313 25.6907 44.9003 24.3706 44.9937 22.9983C45.0872 21.626 44.8015 20.2545 44.1678 19.0336C43.5341 17.8128 42.577 16.7898 41.401 16.0764C40.225 15.363 38.8755 14.9867 37.5 14.9888V14.9888ZM37.5 24.9888C37.0055 24.9888 36.5222 24.8422 36.1111 24.5675C35.6999 24.2927 35.3795 23.9023 35.1903 23.4455C35.0011 22.9887 34.9516 22.486 35.048 22.0011C35.1445 21.5161 35.3826 21.0706 35.7322 20.721C36.0819 20.3714 36.5273 20.1333 37.0123 20.0368C37.4972 19.9404 37.9999 19.9899 38.4567 20.1791C38.9135 20.3683 39.304 20.6887 39.5787 21.0999C39.8534 21.511 40 21.9943 40 22.4888C40 23.1518 39.7366 23.7877 39.2678 24.2565C38.7989 24.7254 38.163 24.9888 37.5 24.9888Z" fill="white"/>
</svg>
