<svg width="471" height="471" viewBox="0 0 471 471" fill="none" xmlns="http://www.w3.org/2000/svg">
<path d="M17.1114 22.6292L112.783 0.551098C123.178 -1.8407 133.85 3.58684 138.081 13.338L182.237 116.369C186.101 125.384 183.525 135.964 175.89 142.127L120.143 187.755C153.26 258.313 211.123 317.004 283.153 350.765L328.781 295.018C335.036 287.383 345.524 284.807 354.539 288.671L457.57 332.827C467.413 337.15 472.841 347.822 470.449 358.217L448.371 453.889C446.071 463.824 437.24 470.999 426.845 470.999C191.253 470.999 0.000835776 280.115 0.000835776 44.1554C0.000835776 33.8523 7.08427 24.929 17.1114 22.6292Z" fill="white"/>
</svg>
